# xmcd
#
# Track frame offsets:
#	150
#	10582
#	23375
#	35140
#	48037
#	62472
#	81375
#	93682
#	109440
#	126260
#	140167
#	150477
#	165942
#	181200
#	193417
#	212920
#	239855
#
# Disc length: 3519
#
# Revision: 1
# Processed by: cddbd v1.5.1PL0 Copyright (c) Steve Scherf et al.
# Submitted via: audiograbber 1.80
# Normalized: r0:DSETVAR1
#
DISCID=ec0dbd11
DTITLE=Various Artist - The Best Ever Golden Guitars Album - Disc 1
DYEAR=1900
DGENRE=
TTITLE0=Slim Newton - Redback On The Toilet Seat
TTITLE1=Col Joye - Heaven Is My Woman's Name
TTITLE2=Tex Morton - The Goondiwindi Grey
TTITLE3=Reg Lindsay - July You're A Woman
TTITLE4=Johnny Chester - She's My Kind Of Woman
TTITLE5=Bill and Boyd - Santa Never Made It Into Darwin
TTITLE6=Heather McKean - I Can Feel Love
TTITLE7=Slim Dusty - Indian Pacific
TTITLE8=Anne Kirkpatrick - Grievous Angel
TTITLE9=Jean Stafford - Hello Love
TTITLE10=Buddy Williams - Without You (What A Dreary Old World It Would Be)
TTITLE11=Jewel and Arthur Blanch - The Lady And The Cowboy
TTITLE12=The Webb Brothers - Who Put The Roo In The Stew
TTITLE13=Bullamakanka - Home Among The Gumtrees
TTITLE14=Redgum - I Was Only 19 (A Walk In The Green Light)
TTITLE15=Australia Too - The Garden
TTITLE16=Norma O'Hara Murphy - How The Fire Queen Crossed The Swamp
EXTD=
EXTT0=\n
EXTT1=
EXTT2=
EXTT3=
EXTT4=
EXTT5=
EXTT6=
EXTT7=
EXTT8=
EXTT9=
EXTT10=
EXTT11=
EXTT12=
EXTT13=
EXTT14=
EXTT15=
EXTT16=
PLAYORDER=
